0
SECTION
2
HEADER
9
$INSUNITS
70
4
9
$ACADVER
1
AC1014
9
$HANDSEED
5
FFFF
0
ENDSEC
0
SECTION
2
TABLES
0
TABLE
2
VPORT
5
8
100
AcDbSymbolTable
0
ENDTAB
0
TABLE
2
LTYPE
5
5
100
AcDbSymbolTable
0
LTYPE
5
14
100
AcDbSymbolTableRecord
100
AcDbLinetypeTableRecord
2
BYBLOCK
70
0
0
LTYPE
5
15
100
AcDbSymbolTableRecord
100
AcDbLinetypeTableRecord
2
BYLAYER
70
0
0
LTYPE
5
16
100
AcDbSymbolTableRecord
100
AcDbLinetypeTableRecord
2
DASHED
70
0
3
Dashed __ __ __ __ __ __ __ __ __ __ __ __ __ _
72
65
73
2
40
0.75
49
0.5
74
0
49
-0.25
74
0
0
ENDTAB
0
TABLE
2
LAYER
5
2
100
AcDbSymbolTable
70
2
0
LAYER
5
50
100
AcDbSymbolTableRecord
100
AcDbLayerTableRecord
2
0
70
0
62
7
6
CONTINUOUS
0
ENDTAB
0
TABLE
2
STYLE
5
3
100
AcDbSymbolTable
70
1
0
STYLE
5
11
100
AcDbSymbolTableRecord
100
AcDbTextStyleTableRecord
2
STANDARD
70
0
0
ENDTAB
0
TABLE
2
VIEW
5
6
100
AcDbSymbolTable
70
0
0
ENDTAB
0
TABLE
2
UCS
5
7
100
AcDbSymbolTable
70
0
0
ENDTAB
0
TABLE
2
APPID
5
9
100
AcDbSymbolTable
70
2
0
APPID
5
12
100
AcDbSymbolTableRecord
100
AcDbRegAppTableRecord
2
ACAD
70
0
0
ENDTAB
0
TABLE
2
DIMSTYLE
5
A
100
AcDbSymbolTable
70
1
0
ENDTAB
0
TABLE
2
BLOCK_RECORD
5
1
100
AcDbSymbolTable
70
1
0
BLOCK_RECORD
5
1F
100
AcDbSymbolTableRecord
100
AcDbBlockTableRecord
2
*MODEL_SPACE
0
BLOCK_RECORD
5
1B
100
AcDbSymbolTableRecord
100
AcDbBlockTableRecord
2
*PAPER_SPACE
0
ENDTAB
0
ENDSEC
0
SECTION
2
BLOCKS
0
BLOCK
5
20
100
AcDbEntity
100
AcDbBlockBegin
2
*MODEL_SPACE
0
ENDBLK
5
21
100
AcDbEntity
100
AcDbBlockEnd
0
BLOCK
5
1C
100
AcDbEntity
100
AcDbBlockBegin
2
*PAPER_SPACE
0
ENDBLK
5
1D
100
AcDbEntity
100
AcDbBlockEnd
0
ENDSEC
0
SECTION
2
ENTITIES
0
ELLIPSE
5
100
100
AcDbEntity
8
0
100
AcDbEllipse
10
4.4386460475006775
20
6.3865217367933091
30
0
11
-0.00011005503235699441
21
2.4647813375740038
31
0.0
40
0.99999832341073613
41
0
42
6.2831853071795862
0
ELLIPSE
5
101
100
AcDbEntity
8
0
100
AcDbEllipse
10
-4.4363539540000012
20
6.3865217377683159
30
0
11
1.0141887329950809e-12
21
2.4647813397071872
31
0.0
40
0.99999832353861484
41
0
42
6.2831853071795862
0
SPLINE
5
102
100
AcDbEntity
8
0
100
AcDbSpline
70
0
71
3
72
20
73
16
74
0
42
0.000000001
43
0.0000000001
44
0.0000000001
40
1.5872968430000001
40
1.5872968430000001
40
1.5872968430000001
40
1.5872968430000001
40
28.07924704126367
40
28.07924704126367
40
28.07924704126367
40
48.025669278000002
40
48.025669278000002
40
48.025669278000002
40
54.770791162289193
40
54.770791162289193
40
54.770791162289193
40
67.971641809059747
40
67.971641809059747
40
67.971641809059747
40
94.46404171399999
40
94.46404171399999
40
94.46404171399999
40
94.46404171399999
10
40.512510498000005
20
32.576944286
30
0
10
36.841483828059651
20
32.475217691707094
30
0
10
33.014692857198831
20
31.496578717740626
30
0
10
29.644823333878357
20
29.694555967396397
30
0
10
27.107568058528155
20
28.337769985633287
30
0
10
24.835307580251786
20
26.525697715919733
30
0
10
22.985025823165714
20
24.471551649164471
30
0
10
22.359330857737941
20
23.77691752260521
30
0
10
21.765558835818094
20
23.038177373929308
30
0
10
21.213103511302144
20
22.260005893583653
30
0
10
20.131895439297566
20
20.737049649672588
30
0
10
19.210105144622048
20
19.062049650339372
30
0
10
18.495500566271783
20
17.296341994292149
30
0
10
17.061381601507346
20
13.752795097891086
30
0
10
16.48668705712285
20
9.8485989222823846
30
0
10
16.772530177
20
6.1872388530000011
30
0
0
SPLINE
5
103
100
AcDbEntity
8
0
100
AcDbSpline
70
0
71
3
72
29
73
25
74
0
42
0.000000001
43
0.0000000001
44
0.0000000001
40
-13.034687030000001
40
-13.034687030000001
40
-13.034687030000001
40
-13.034687030000001
40
-12.806981396885268
40
-12.806981396885268
40
-12.806981396885268
40
-11.62318246796009
40
-11.62318246796009
40
-11.62318246796009
40
-10.38136964003858
40
-10.38136964003858
40
-10.38136964003858
40
-8.8850123321331544
40
-8.8850123321331544
40
-8.8850123321331544
40
-7.3886544872277309
40
-7.3886544872277309
40
-7.3886544872277309
40
-6.1468421023062172
40
-6.1468421023062172
40
-6.1468421023062172
40
-4.963043128381039
40
-4.963043128381039
40
-4.963043128381039
40
-4.7357045429999998
40
-4.7357045429999998
40
-4.7357045429999998
40
-4.7357045429999998
10
-40.515816111602689
20
32.575674589722574
30
0
10
-39.807687402652199
20
32.847966381728284
30
0
10
-39.096269314532755
20
33.111887072165025
30
0
10
-38.381606255780795
20
33.367245449620938
30
0
10
-34.666206896000013
20
34.694805815999999
30
0
10
-30.860786368999999
20
35.754003523000002
30
0
10
-27.051517998073788
20
36.776134234624962
30
0
10
-23.055570534000008
20
37.848356043999999
30
0
10
-19.027575697
20
38.841260869999999
30
0
10
-14.925149570788388
20
39.405902374195428
30
0
10
-9.9818157799999945
20
40.086283042000012
30
0
10
-4.9860626370000025
20
40.300476429000007
30
0
10
6.2082198631907559e-07
20
40.30047624200003
30
0
10
4.9860656680000028
20
40.300476055000004
30
0
10
9.9818119120000013
20
40.086283582
30
0
10
14.925149353678941
20
39.405902370413095
30
0
10
19.027575574000004
20
38.841260818999999
30
0
10
23.055573788
20
37.848355234000003
30
0
10
27.051515898161043
20
36.776134920816531
30
0
10
30.860780669000011
20
35.754005231999997
30
0
10
34.66621266100001
20
34.694804142999999
30
0
10
38.381608420068957
20
33.367245170150888
30
0
10
39.095118766506225
20
33.112298692290118
30
0
10
39.805445750137906
20
32.848798192280071
30
0
10
40.512510887541715
20
32.576945299131175
30
0
0
SPLINE
5
104
100
AcDbEntity
8
0
100
AcDbSpline
70
0
71
3
72
20
73
16
74
0
42
0.000000001
43
0.0000000001
44
0.0000000001
40
265.53595828599998
40
265.53595828599998
40
265.53595828599998
40
265.53595828599998
40
291.99832001418065
40
291.99832001418065
40
291.99832001418065
40
311.92236983700002
40
311.92236983700002
40
311.92236983700002
40
318.65968901395422
40
318.65968901395422
40
318.65968901395422
40
331.84593668208021
40
331.84593668208021
40
331.84593668208021
40
358.30878138800006
40
358.30878138800006
40
358.30878138800006
40
358.30878138800006
10
-16.82024152
20
6.1872388530000011
30
0
10
-16.534704826321242
20
9.8446739057969328
30
0
10
-17.102876513171491
20
13.748703571498408
30
0
10
-18.536132952721537
20
17.286470261092997
30
0
10
-19.615260847797551
20
19.95012668409208
30
0
10
-21.174059893626765
20
22.399043455184437
30
0
10
-23.017894575357257
20
24.455032481290413
30
0
10
-23.641387433025606
20
25.150265348923906
30
0
10
-24.312017754131801
20
25.818493504123531
30
0
10
-25.026144390713409
20
26.449916910988964
30
0
10
-26.423829500924878
20
27.685735670304989
30
0
10
-27.989257451647518
20
28.779523894748653
30
0
10
-29.666715919929647
20
29.677447180970301
30
0
10
-33.033126445805095
20
31.479446133147526
30
0
10
-36.848785567738631
20
32.467400981916434
30
0
10
-40.515815674000002
20
32.575673458000004
30
0
0
SPLINE
5
105
100
AcDbEntity
8
0
100
AcDbSpline
70
0
71
3
72
8
73
4
74
0
42
0.000000001
43
0.0000000001
44
0.0000000001
40
74.730692358999278
40
74.730692358999278
40
74.730692358999278
40
74.730692358999278
40
98.045111057999989
40
98.045111057999989
40
98.045111057999989
40
98.045111057999989
10
-16.42599715341051
20
-0.0074756303696450754
30
0
10
-16.974581781402083
20
2.0486407670833002
30
0
10
-17.101051759587161
20
4.2005197624373567
30
0
10
-16.82024152
20
6.1872388530000011
30
0
0
SPLINE
5
106
100
AcDbEntity
8
0
100
AcDbSpline
70
0
71
3
72
8
73
4
74
0
42
0.000000001
43
0.0000000001
44
0.0000000001
40
261.95488894200003
40
261.95488894200003
40
261.95488894200003
40
261.95488894200003
40
285.269306694541
40
285.269306694541
40
285.269306694541
40
285.269306694541
10
16.772530177
20
6.1872388530000011
30
0
10
17.053340405187537
20
4.2005198430891477
30
0
10
16.926870833453155
20
2.0486407712648269
30
0
10
16.378286442248434
20
-0.0074756303699306803
30
0
0
LINE
5
107
100
AcDbEntity
8
0
100
AcDbLine
10
-16.42599715341051
20
-0.0074756303696450754
30
0
11
-45.001833263286947
21
-0.0074756303693961244
31
0
0
LINE
5
108
100
AcDbEntity
8
0
100
AcDbLine
10
-45.001833263286947
20
-0.0074756303693961244
30
0
11
-45.001833263286585
21
41.992524369630608
31
0
0
LINE
5
109
100
AcDbEntity
8
0
100
AcDbLine
10
-45.001833263286585
20
41.992524369630608
30
0
11
-0.0018332632865830645
21
41.992524369630218
31
0
0
LINE
5
110
100
AcDbEntity
8
0
100
AcDbLine
10
16.378286442248431
20
-0.0074756303699306456
30
0
11
44.998166736713785
21
-0.0074756303693961244
31
0
0
LINE
5
111
100
AcDbEntity
8
0
100
AcDbLine
10
44.998166736713785
20
-0.0074756303693961244
30
0
11
44.998166736713415
21
41.992524369630608
31
0
0
LINE
5
112
100
AcDbEntity
8
0
100
AcDbLine
10
44.998166736713415
20
41.992524369630608
30
0
11
-0.0018332632865830645
21
41.992524369630218
31
0
0
LINE
5
113
100
AcDbEntity
8
0
100
AcDbLine
10
-16.42599715341051
20
-0.0074756303696450754
30
0
11
16.378286442248431
21
-0.0074756303699306456
31
0
0
ENDSEC
0
SECTION
2
OBJECTS
0
DICTIONARY
5
C
100
AcDbDictionary
3
ACAD_GROUP
350
D
3
ACAD_MLINESTYLE
350
17
0
DICTIONARY
5
D
100
AcDbDictionary
0
DICTIONARY
5
1A
330
C
100
AcDbDictionary
0
DICTIONARY
5
17
100
AcDbDictionary
0
ENDSEC
0
EOF
