<svg id="svg" xmlns="http://www.w3.org/2000/svg" xmlns:xlink="http://www.w3.org/1999/xlink" width="400" height="277.12" viewBox="0, 0, 400,277.12"><g id="svgg"><path id="path0" d="M116.160 8.356 C 84.007 10.483,62.043 20.764,55.159 36.910 C 54.672 38.052,53.920 38.970,52.517 40.133 C 47.641 44.179,46.784 45.885,43.665 57.760 C 41.012 67.863,33.284 98.843,33.288 99.360 C 33.291 99.794,39.636 107.134,48.323 116.755 C 50.173 118.804,52.549 121.485,53.603 122.714 C 54.658 123.943,57.032 126.629,58.880 128.683 C 60.728 130.737,63.968 134.380,66.080 136.779 C 70.071 141.312,77.977 150.178,83.587 156.413 C 85.375 158.400,87.059 160.344,87.330 160.733 C 87.602 161.122,89.616 163.384,91.806 165.760 C 93.997 168.136,96.520 170.957,97.415 172.030 C 99.079 174.027,101.481 176.729,109.686 185.840 L 114.370 191.040 200.320 191.040 L 286.270 191.040 290.954 185.840 C 299.159 176.729,301.561 174.027,303.225 172.030 C 304.120 170.957,306.643 168.136,308.834 165.760 C 311.024 163.384,313.038 161.122,313.310 160.733 C 313.581 160.344,315.265 158.400,317.053 156.413 C 322.663 150.178,330.569 141.312,334.560 136.779 C 336.672 134.380,339.912 130.737,341.760 128.683 C 343.608 126.629,345.982 123.943,347.037 122.714 C 348.091 121.485,350.467 118.804,352.317 116.755 C 356.656 111.950,361.077 106.955,364.419 103.082 C 365.882 101.387,367.224 100.040,367.403 100.088 C 367.582 100.136,367.651 99.920,367.557 99.608 C 367.463 99.296,366.285 94.504,364.940 88.960 C 359.411 66.182,354.808 48.787,353.760 46.721 C 352.670 44.569,350.689 42.184,348.432 40.306 C 346.765 38.918,346.213 38.174,344.921 35.570 C 337.014 19.634,315.196 10.113,282.352 8.264 C 274.575 7.826,274.234 7.887,265.952 11.207 L 260.380 13.440 200.332 13.440 L 140.285 13.440 136.074 11.699 C 126.848 7.883,125.849 7.716,116.160 8.356 " stroke="none" fill="#000000" fill-rule="evenodd"></path></g></svg>