<svg id="svg" xmlns="http://www.w3.org/2000/svg" xmlns:xlink="http://www.w3.org/1999/xlink" width="400" height="277.12" viewBox="0, 0, 400,277.12"><g id="svgg"><path id="path0" d="M32.364 103.280 C 20.392 153.676,12.479 205.211,14.122 222.080 C 17.129 252.958,33.567 270.348,55.139 265.473 C 66.798 262.838,77.370 251.117,85.766 231.520 C 96.343 206.829,105.282 193.793,113.223 191.478 C 115.218 190.896,115.536 191.534,110.532 186.080 C 108.756 184.144,106.235 181.326,104.931 179.817 C 101.574 175.932,96.743 170.464,92.640 165.903 C 90.704 163.751,86.744 159.292,83.840 155.994 C 80.936 152.696,77.059 148.356,75.225 146.350 C 73.391 144.344,71.591 142.288,71.225 141.783 C 70.859 141.277,68.496 138.581,65.973 135.792 C 57.481 126.402,54.777 123.366,53.706 122.019 C 53.120 121.281,50.644 118.473,48.205 115.779 C 41.127 107.960,39.572 106.211,36.487 102.603 C 34.887 100.731,33.523 99.200,33.455 99.200 C 33.388 99.200,32.897 101.036,32.364 103.280 " stroke="none" fill="#000000" fill-rule="evenodd"></path></g></svg>