<svg id="svg" xmlns="http://www.w3.org/2000/svg" xmlns:xlink="http://www.w3.org/1999/xlink" width="400" height="277.12" viewBox="0, 0, 400,277.12"><g id="svgg"><path id="path0" d="M364.211 102.535 C 361.069 106.211,359.530 107.942,352.435 115.779 C 349.996 118.473,347.520 121.281,346.934 122.019 C 345.863 123.366,343.159 126.402,334.667 135.792 C 332.144 138.581,329.781 141.277,329.415 141.783 C 329.049 142.288,327.249 144.344,325.415 146.350 C 323.581 148.356,319.704 152.696,316.800 155.994 C 313.896 159.292,309.936 163.751,308.000 165.903 C 303.897 170.464,299.066 175.932,295.709 179.817 C 294.405 181.326,291.884 184.144,290.108 186.080 C 285.104 191.534,285.422 190.896,287.417 191.478 C 295.358 193.793,304.297 206.829,314.874 231.520 C 323.270 251.117,333.842 262.838,345.501 265.473 C 365.392 269.968,380.826 255.845,385.576 228.800 C 387.927 215.411,386.035 193.013,379.508 156.960 C 376.741 141.676,369.275 106.290,367.593 100.492 L 367.179 99.064 364.211 102.535 " stroke="none" fill="#000000" fill-rule="evenodd"></path></g></svg>