<svg id="svg" xmlns="http://www.w3.org/2000/svg" xmlns:xlink="http://www.w3.org/1999/xlink" width="400" height="277.12" viewBox="0, 0, 400,277.12"><g id="svgg"><path id="path0" d="M116.039 8.659 C 84.507 10.794,62.353 20.895,54.891 36.539 C 53.811 38.803,53.232 39.592,51.764 40.800 C 46.104 45.460,45.896 46.010,38.127 76.800 C 20.191 147.889,10.550 206.809,13.554 226.978 C 16.919 249.562,26.352 263.663,40.620 267.436 C 59.492 272.427,74.856 260.620,87.356 231.520 C 96.260 210.790,104.372 198.298,111.360 194.554 L 113.440 193.440 199.360 193.343 C 260.274 193.274,285.752 193.346,286.902 193.593 C 294.253 195.166,303.566 208.577,313.575 232.000 C 322.609 253.143,333.289 265.064,345.578 267.722 C 366.306 272.205,382.273 257.171,386.863 228.849 C 390.607 205.752,379.611 140.918,358.091 59.200 C 354.806 46.726,353.320 43.919,347.826 39.809 C 347.379 39.474,346.682 38.382,346.278 37.382 C 339.588 20.823,314.591 9.892,280.160 8.470 C 274.241 8.225,273.619 8.364,264.922 11.873 L 260.244 13.760 200.357 13.760 L 140.470 13.760 136.235 12.036 C 126.884 8.230,125.586 8.013,116.039 8.659 " stroke="none" fill="#000000" fill-rule="evenodd"></path></g></svg>