<svg id="svg" xmlns="http://www.w3.org/2000/svg" xmlns:xlink="http://www.w3.org/1999/xlink" width="400" height="277.12" viewBox="0, 0, 400,277.12"><g id="svgg"><path id="path0" d="M294.034 43.621 C 283.836 47.097,280.883 59.805,288.503 67.425 C 297.501 76.423,312.960 69.903,312.960 57.111 C 312.960 47.492,303.163 40.509,294.034 43.621 M91.992 63.974 C 78.226 66.185,68.826 79.263,71.501 92.487 C 76.500 117.197,110.983 119.384,118.996 95.498 C 124.623 78.726,109.570 61.152,91.992 63.974 M268.480 70.756 C 256.948 72.721,252.475 87.307,260.947 95.319 C 269.435 103.347,283.283 98.597,285.101 87.035 C 286.586 77.588,277.960 69.141,268.480 70.756 M323.879 70.752 C 310.205 73.095,307.619 91.840,320.131 97.917 C 328.722 102.090,338.812 96.820,340.519 87.268 C 342.208 77.815,333.441 69.112,323.879 70.752 M295.040 98.821 C 284.441 101.591,280.707 114.455,288.164 122.509 C 295.659 130.604,309.038 127.425,312.357 116.760 C 315.619 106.280,305.723 96.028,295.040 98.821 M245.280 111.567 C 224.917 114.846,217.111 139.375,231.979 153.362 C 247.161 167.645,272.235 157.566,273.182 136.800 C 273.876 121.589,260.146 109.173,245.280 111.567 M135.360 121.434 L 135.360 130.880 125.920 130.880 L 116.480 130.880 116.480 138.080 L 116.480 145.280 125.920 145.280 L 135.360 145.280 135.360 154.720 L 135.360 164.160 142.560 164.160 L 149.760 164.160 149.760 154.720 L 149.760 145.280 159.040 145.280 L 168.320 145.280 168.320 138.080 L 168.320 130.880 159.045 130.880 L 149.770 130.880 149.685 121.520 L 149.600 112.160 142.480 112.074 L 135.360 111.988 135.360 121.434 " stroke="none" fill="#000000" fill-rule="evenodd"></path></g></svg>