<svg version="1.1" id="Layer_1" xmlns="http://www.w3.org/2000/svg" xmlns:xlink="http://www.w3.org/1999/xlink" x="0px" y="0px"
	 width="100%" viewBox="0 0 309 267" enable-background="new 0 0 309 267" xml:space="preserve">
<path fill="#FCFDFC" opacity="0.000000" stroke="none" 
	d="
M209.000000,268.000000 
	C139.333344,268.000000 70.166687,268.000000 1.000019,268.000000 
	C1.000012,179.000015 1.000012,90.000038 1.000006,1.000042 
	C103.999969,1.000028 206.999939,1.000028 309.999939,1.000014 
	C309.999939,89.999962 309.999939,178.999924 309.999969,267.999939 
	C276.500000,268.000000 243.000000,268.000000 209.000000,268.000000 
M141.973251,29.737862 
	C139.749084,34.378834 137.524918,39.019810 135.300735,43.660782 
	C133.519882,43.302979 131.669983,43.713543 131.358734,44.640659 
	C129.752121,49.426270 128.565369,54.351509 127.182983,59.214066 
	C125.573700,64.874748 119.528999,68.531189 114.017502,66.939865 
	C105.709816,64.541199 97.506981,65.324020 89.453735,67.740349 
	C55.319424,77.982147 35.071724,100.824982 28.747250,135.801056 
	C24.408026,159.798157 26.731028,182.996552 39.985390,204.034561 
	C50.441319,220.630722 64.766235,232.034164 85.101997,234.301117 
	C89.650719,234.808182 94.109680,236.089371 98.625259,236.932220 
	C104.940079,238.110870 111.272957,239.192490 117.590858,240.355011 
	C121.276413,241.033157 124.938332,241.841568 128.627762,242.496292 
	C134.634018,243.562164 140.730865,245.716690 146.652252,245.326920 
	C158.792908,244.527756 170.267395,238.714844 182.798401,239.841202 
	C183.389664,239.894348 184.015610,239.340912 184.650925,239.159103 
	C190.353119,237.527298 196.015991,234.753006 201.776245,234.529877 
	C215.491058,233.998550 227.491898,229.647964 237.931046,221.043182 
	C253.260681,208.407288 261.767029,191.709183 264.533569,172.339584 
	C269.292480,139.020798 262.604401,108.797470 236.272049,85.891991 
	C218.950714,70.824829 198.917160,61.776627 174.892426,67.093872 
	C173.724640,67.352325 171.975372,66.930420 171.078079,66.153816 
	C164.332031,60.315052 158.918350,53.612446 156.653687,44.636284 
	C155.461929,39.912735 156.081635,35.670509 159.811356,33.008793 
	C161.999268,31.447395 165.903809,30.820255 168.479340,31.603632 
	C172.792664,32.915581 173.627060,36.947979 173.435181,41.384789 
	C173.208374,46.628811 176.961899,49.810997 181.626526,48.846119 
	C186.014633,47.938435 188.039139,44.583191 188.528671,40.628223 
	C190.461441,25.012947 176.904617,9.812347 159.394516,12.458391 
	C145.292862,14.589368 135.950836,23.281010 129.543945,36.299599 
	C129.409622,36.983883 129.275284,37.668171 129.013596,39.001247 
	C129.972260,38.229362 130.446014,38.000790 130.672485,37.623711 
	C130.911667,37.225452 130.915131,36.685638 131.679108,35.993877 
	C134.737167,33.133072 137.795212,30.272266 141.094055,28.103008 
	C141.456039,28.420097 141.818024,28.737186 141.973251,29.737862 
M134.588989,36.516716 
	C134.588989,36.516716 134.475204,36.585068 134.588989,36.516716 
z"/>
<path fill="#090909" opacity="1.000000" stroke="none" 
	d="
M130.067123,35.977654 
	C135.950836,23.281010 145.292862,14.589368 159.394516,12.458391 
	C176.904617,9.812347 190.461441,25.012947 188.528671,40.628223 
	C188.039139,44.583191 186.014633,47.938435 181.626526,48.846119 
	C176.961899,49.810997 173.208374,46.628811 173.435181,41.384789 
	C173.627060,36.947979 172.792664,32.915581 168.479340,31.603632 
	C165.903809,30.820255 161.999268,31.447395 159.811356,33.008793 
	C156.081635,35.670509 155.461929,39.912735 156.653687,44.636284 
	C158.918350,53.612446 164.332031,60.315052 171.078079,66.153816 
	C171.975372,66.930420 173.724640,67.352325 174.892426,67.093872 
	C198.917160,61.776627 218.950714,70.824829 236.272049,85.891991 
	C262.604401,108.797470 269.292480,139.020798 264.533569,172.339584 
	C261.767029,191.709183 253.260681,208.407288 237.931046,221.043182 
	C227.491898,229.647964 215.491058,233.998550 201.776245,234.529877 
	C196.015991,234.753006 190.353119,237.527298 184.650925,239.159103 
	C184.015610,239.340912 183.389664,239.894348 182.798401,239.841202 
	C170.267395,238.714844 158.792908,244.527756 146.652252,245.326920 
	C140.730865,245.716690 134.634018,243.562164 128.627762,242.496292 
	C124.938332,241.841568 121.276413,241.033157 117.590858,240.355011 
	C111.272957,239.192490 104.940079,238.110870 98.625259,236.932220 
	C94.109680,236.089371 89.650719,234.808182 85.101997,234.301117 
	C64.766235,232.034164 50.441319,220.630722 39.985390,204.034561 
	C26.731028,182.996552 24.408026,159.798157 28.747250,135.801056 
	C35.071724,100.824982 55.319424,77.982147 89.453735,67.740349 
	C97.506981,65.324020 105.709816,64.541199 114.017502,66.939865 
	C119.528999,68.531189 125.573700,64.874748 127.182983,59.214066 
	C128.565369,54.351509 129.752121,49.426270 131.358734,44.640659 
	C131.669983,43.713543 133.519882,43.302979 135.300735,43.660782 
	C137.524918,39.019810 139.749084,34.378834 142.357513,29.293522 
	C143.343094,28.062582 143.944443,27.275984 144.691177,26.269516 
	C144.782730,25.799109 144.728882,25.548573 144.675034,25.298035 
	C144.424652,25.505089 144.174271,25.712145 143.626007,25.919815 
	C142.503143,26.417440 141.678207,26.914448 140.853271,27.411457 
	C137.795212,30.272266 134.737167,33.133072 131.118073,36.016964 
	C130.557022,36.040051 130.067123,35.977654 130.067123,35.977654 
M74.145317,104.124893 
	C74.291397,104.246208 74.437485,104.367531 74.386070,105.231995 
	C62.196133,145.092865 68.665260,181.638947 93.937813,214.784805 
	C87.550507,199.820496 82.465828,184.439651 80.379227,167.608154 
	C85.338554,173.674377 89.366142,179.816498 94.597694,184.657532 
	C99.807335,189.478271 106.225372,192.993134 112.992981,197.691055 
	C113.623718,193.883270 113.967438,191.808212 114.334938,189.589584 
	C117.571663,190.276093 120.749756,190.950165 123.839127,191.605423 
	C124.021217,194.909241 124.181587,197.819138 124.349655,200.868515 
	C130.182816,201.432190 135.414856,201.937775 140.846802,202.462677 
	C141.094955,200.097397 141.298737,198.154984 141.538101,195.873428 
	C144.686691,195.699829 147.708466,195.533218 150.800262,195.362747 
	C151.020950,197.894821 151.189484,199.828568 151.407104,202.325439 
	C156.640564,201.832458 161.521606,201.372681 166.622162,200.892227 
	C166.792953,197.682846 166.941360,194.894211 167.100296,191.907837 
	C170.356186,191.149719 173.526199,190.411591 176.810211,189.646927 
	C177.224533,192.038651 177.572739,194.048737 177.970490,196.344772 
	C195.084747,189.148407 204.632492,176.682404 208.027588,159.101425 
	C199.943680,164.879623 191.979248,170.572403 183.398087,176.706039 
	C182.282867,173.125122 181.613419,170.975510 180.830963,168.463089 
	C177.748245,169.128098 174.920502,169.738098 172.114014,170.343521 
	C171.971664,173.042450 171.850708,175.335922 171.711411,177.977036 
	C168.747574,178.462921 165.944763,178.922424 163.155975,179.379623 
	C162.618988,176.487595 162.206802,174.267731 161.837692,172.279877 
	C151.307297,172.279877 141.216736,172.279877 131.158768,172.279877 
	C130.892685,174.782730 130.656647,177.003113 130.371201,179.688095 
	C126.930397,178.946655 124.100273,178.336823 121.033371,177.675964 
	C121.033371,175.005280 121.033371,172.715012 121.033371,170.279709 
	C117.733788,169.582458 114.723709,168.946411 111.570351,168.280060 
	C110.863663,170.854599 110.271858,173.010620 109.385483,176.239761 
	C101.826256,171.287842 94.867706,166.523911 87.699486,162.099686 
	C82.127800,158.660843 79.921341,154.068329 81.099220,147.613083 
	C81.664230,144.516632 81.713013,141.322540 81.942261,138.168793 
	C83.651321,114.657394 91.783051,93.935364 108.478058,76.914955 
	C109.282028,76.095314 109.965431,75.157425 111.485283,73.343140 
	C106.634041,74.224724 103.048141,74.876358 99.125832,75.134041 
	C99.010910,75.005142 98.895996,74.876251 99.157745,74.120468 
	C99.300438,73.893814 99.481728,73.680290 99.565651,73.433632 
	C99.596512,73.342903 99.397606,73.057388 99.303085,73.057182 
	C90.561424,73.038063 82.893250,76.128052 76.772629,82.161140 
	C55.095627,103.528107 52.368782,130.269913 55.431477,158.519058 
	C56.111927,154.669418 56.193356,150.703873 56.521317,146.758835 
	C57.859024,130.667709 62.562176,115.900467 74.145317,104.124893 
M208.077393,85.444893 
	C227.585770,110.323463 233.984879,139.119339 232.973083,170.210373 
	C234.010620,168.880997 234.488968,167.675888 234.783279,166.427429 
	C237.666473,154.196838 238.693604,141.882553 236.898560,129.354965 
	C234.512451,112.702591 228.887695,97.497192 217.312790,84.981461 
	C211.723572,78.937965 205.135361,74.472588 196.245392,74.111023 
	C200.231598,77.909538 203.913055,81.417648 208.077393,85.444893 
M174.369659,123.929543 
	C172.995697,124.824066 171.621735,125.718597 169.390320,127.171371 
	C171.723206,130.531235 173.530975,134.086609 176.207809,136.777466 
	C180.755859,141.349304 188.624664,142.019669 194.255569,138.999130 
	C199.715454,136.070328 202.373138,130.302216 201.398788,123.358208 
	C200.396484,116.215050 196.649979,110.504036 191.708908,104.614670 
	C188.210281,113.237747 182.016998,118.774353 174.369659,123.929543 
M122.778206,128.437500 
	C122.565002,127.861359 122.526154,127.018486 122.112915,126.748367 
	C113.455444,121.089424 105.321869,114.917595 100.344597,103.878189 
	C97.660332,109.764229 95.005020,114.239807 93.538803,119.075897 
	C90.255661,129.904861 95.373779,139.102402 104.990074,140.671844 
	C112.626862,141.918213 118.948112,137.755569 122.778206,128.437500 
M149.485229,65.721413 
	C137.415405,63.351894 127.860527,67.614738 120.714119,77.223732 
	C115.960007,83.616058 113.776741,91.016487 113.490646,98.784515 
	C118.057999,93.084656 121.723145,86.953903 126.336403,81.647377 
	C132.685532,74.344124 140.973297,71.398056 150.564926,74.270538 
	C157.385559,76.313187 162.189087,81.186584 166.190247,86.862679 
	C168.022430,89.461845 169.675003,92.187622 171.784775,95.434174 
	C172.814148,83.436378 162.880219,70.271797 149.485229,65.721413 
M139.238235,156.580399 
	C141.844543,156.933319 144.459793,157.637680 147.055420,157.571503 
	C154.090088,157.392181 159.211395,151.472717 155.985321,144.713089 
	C152.790909,138.019882 149.436844,131.402908 145.731049,123.898422 
	C141.804214,131.686050 138.295441,138.411301 135.008865,145.243454 
	C132.775604,149.885971 134.126312,153.570374 139.238235,156.580399 
M177.123184,78.360573 
	C183.229111,85.911087 189.335037,93.461601 195.668945,101.294037 
	C196.129028,90.763893 182.300934,74.358101 172.515549,74.277809 
	C174.176071,75.726639 175.396667,76.791618 177.123184,78.360573 
z"/>
<path fill="#E6E7E7" opacity="0.000000" stroke="none" 
	d="
M144.545776,26.489386 
	C143.944443,27.275984 143.343094,28.062582 142.460876,28.951729 
	C141.818024,28.737186 141.456039,28.420097 140.973663,27.757233 
	C141.678207,26.914448 142.503143,26.417440 143.776291,26.068007 
	C144.224487,26.215580 144.545776,26.489386 144.545776,26.489386 
z"/>
<path fill="#E6E7E7" opacity="0.000000" stroke="none" 
	d="
M129.805542,36.138626 
	C130.067123,35.977654 130.557022,36.040051 130.789291,36.123856 
	C130.915131,36.685638 130.911667,37.225452 130.672485,37.623711 
	C130.446014,38.000790 129.972260,38.229362 129.013596,39.001247 
	C129.275284,37.668171 129.409622,36.983883 129.805542,36.138626 
z"/>
<path fill="#E6E7E7" opacity="0.000000" stroke="none" 
	d="
M134.532104,36.550892 
	C134.475204,36.585068 134.588989,36.516716 134.532104,36.550892 
z"/>
<path fill="#F7F7F8" opacity="0.000000" stroke="none" 
	d="
M99.462250,75.528000 
	C103.048141,74.876358 106.634041,74.224724 111.485283,73.343140 
	C109.965431,75.157425 109.282028,76.095314 108.478058,76.914955 
	C91.783051,93.935364 83.651321,114.657394 81.942261,138.168793 
	C81.713013,141.322540 81.664230,144.516632 81.099220,147.613083 
	C79.921341,154.068329 82.127800,158.660843 87.699486,162.099686 
	C94.867706,166.523911 101.826256,171.287842 109.385483,176.239761 
	C110.271858,173.010620 110.863663,170.854599 111.570351,168.280060 
	C114.723709,168.946411 117.733788,169.582458 121.033371,170.279709 
	C121.033371,172.715012 121.033371,175.005280 121.033371,177.675964 
	C124.100273,178.336823 126.930397,178.946655 130.371201,179.688095 
	C130.656647,177.003113 130.892685,174.782730 131.158768,172.279877 
	C141.216736,172.279877 151.307297,172.279877 161.837692,172.279877 
	C162.206802,174.267731 162.618988,176.487595 163.155975,179.379623 
	C165.944763,178.922424 168.747574,178.462921 171.711411,177.977036 
	C171.850708,175.335922 171.971664,173.042450 172.114014,170.343521 
	C174.920502,169.738098 177.748245,169.128098 180.830963,168.463089 
	C181.613419,170.975510 182.282867,173.125122 183.398087,176.706039 
	C191.979248,170.572403 199.943680,164.879623 208.027588,159.101425 
	C204.632492,176.682404 195.084747,189.148407 177.970490,196.344772 
	C177.572739,194.048737 177.224533,192.038651 176.810211,189.646927 
	C173.526199,190.411591 170.356186,191.149719 167.100296,191.907837 
	C166.941360,194.894211 166.792953,197.682846 166.622162,200.892227 
	C161.521606,201.372681 156.640564,201.832458 151.407104,202.325439 
	C151.189484,199.828568 151.020950,197.894821 150.800262,195.362747 
	C147.708466,195.533218 144.686691,195.699829 141.538101,195.873428 
	C141.298737,198.154984 141.094955,200.097397 140.846802,202.462677 
	C135.414856,201.937775 130.182816,201.432190 124.349655,200.868515 
	C124.181587,197.819138 124.021217,194.909241 123.839127,191.605423 
	C120.749756,190.950165 117.571663,190.276093 114.334938,189.589584 
	C113.967438,191.808212 113.623718,193.883270 112.992981,197.691055 
	C106.225372,192.993134 99.807335,189.478271 94.597694,184.657532 
	C89.366142,179.816498 85.338554,173.674377 80.379227,167.608154 
	C82.465828,184.439651 87.550507,199.820496 93.937813,214.784805 
	C68.665260,181.638947 62.196133,145.092865 74.634064,104.626938 
	C74.822372,103.762001 74.762688,103.502121 74.702995,103.242233 
	C74.379547,103.405540 74.056099,103.568855 73.732651,103.732162 
	C62.562176,115.900467 57.859024,130.667709 56.521317,146.758835 
	C56.193356,150.703873 56.111927,154.669418 55.431477,158.519058 
	C52.368782,130.269913 55.095627,103.528107 76.772629,82.161140 
	C82.893250,76.128052 90.561424,73.038063 99.303085,73.057182 
	C99.397606,73.057388 99.596512,73.342903 99.565651,73.433632 
	C99.481728,73.680290 99.300438,73.893814 98.657806,74.483841 
	C97.871010,75.115540 97.584160,75.383873 97.297310,75.652206 
	C98.018959,75.610802 98.740601,75.569405 99.462250,75.528000 
z"/>
<path fill="#F2F1F2" opacity="0.000000" stroke="none" 
	d="
M207.835938,85.185333 
	C203.913055,81.417648 200.231598,77.909538 196.245392,74.111023 
	C205.135361,74.472588 211.723572,78.937965 217.312790,84.981461 
	C228.887695,97.497192 234.512451,112.702591 236.898560,129.354965 
	C238.693604,141.882553 237.666473,154.196838 234.783279,166.427429 
	C234.488968,167.675888 234.010620,168.880997 232.973083,170.210373 
	C233.984879,139.119339 227.585770,110.323463 207.835938,85.185333 
z"/>
<path fill="#F7F7F7" opacity="0.000000" stroke="none" 
	d="
M174.661011,123.714096 
	C182.016998,118.774353 188.210281,113.237747 191.708908,104.614670 
	C196.649979,110.504036 200.396484,116.215050 201.398788,123.358208 
	C202.373138,130.302216 199.715454,136.070328 194.255569,138.999130 
	C188.624664,142.019669 180.755859,141.349304 176.207809,136.777466 
	C173.530975,134.086609 171.723206,130.531235 169.390320,127.171371 
	C171.621735,125.718597 172.995697,124.824066 174.661011,123.714096 
z"/>
<path fill="#F8F8F8" opacity="0.000000" stroke="none" 
	d="
M122.650467,128.781906 
	C118.948112,137.755569 112.626862,141.918213 104.990074,140.671844 
	C95.373779,139.102402 90.255661,129.904861 93.538803,119.075897 
	C95.005020,114.239807 97.660332,109.764229 100.344597,103.878189 
	C105.321869,114.917595 113.455444,121.089424 122.112915,126.748367 
	C122.526154,127.018486 122.565002,127.861359 122.650467,128.781906 
z"/>
<path fill="#F1F1F1" opacity="0.000000" stroke="none" 
	d="
M149.884079,65.829758 
	C162.880219,70.271797 172.814148,83.436378 171.784775,95.434174 
	C169.675003,92.187622 168.022430,89.461845 166.190247,86.862679 
	C162.189087,81.186584 157.385559,76.313187 150.564926,74.270538 
	C140.973297,71.398056 132.685532,74.344124 126.336403,81.647377 
	C121.723145,86.953903 118.057999,93.084656 113.490646,98.784515 
	C113.776741,91.016487 115.960007,83.616058 120.714119,77.223732 
	C127.860527,67.614738 137.415405,63.351894 149.884079,65.829758 
z"/>
<path fill="#F7F7F8" opacity="0.000000" stroke="none" 
	d="
M138.942139,156.324051 
	C134.126312,153.570374 132.775604,149.885971 135.008865,145.243454 
	C138.295441,138.411301 141.804214,131.686050 145.731049,123.898422 
	C149.436844,131.402908 152.790909,138.019882 155.985321,144.713089 
	C159.211395,151.472717 154.090088,157.392181 147.055420,157.571503 
	C144.459793,157.637680 141.844543,156.933319 138.942139,156.324051 
z"/>
<path fill="#E7E6E8" opacity="0.000000" stroke="none" 
	d="
M176.870209,78.108582 
	C175.396667,76.791618 174.176071,75.726639 172.515549,74.277809 
	C182.300934,74.358101 196.129028,90.763893 195.668945,101.294037 
	C189.335037,93.461601 183.229111,85.911087 176.870209,78.108582 
z"/>
<path fill="#E6E7E7" opacity="0.000000" stroke="none" 
	d="
M144.074188,26.067390 
	C144.174271,25.712145 144.424652,25.505089 144.675034,25.298035 
	C144.728882,25.548573 144.782730,25.799109 144.691177,26.269516 
	C144.545776,26.489386 144.224487,26.215580 144.074188,26.067390 
z"/>
<path fill="#090909" opacity="0.000000" stroke="none" 
	d="
M99.294037,75.331024 
	C98.740601,75.569405 98.018959,75.610802 97.297310,75.652206 
	C97.584160,75.383873 97.871010,75.115540 98.469467,74.797279 
	C98.895996,74.876251 99.010910,75.005142 99.294037,75.331024 
z"/>
<path fill="#090909" opacity="1.000000" stroke="none" 
	d="
M73.938980,103.928528 
	C74.056099,103.568855 74.379547,103.405540 74.702995,103.242233 
	C74.762688,103.502121 74.822372,103.762001 74.732819,104.255371 
	C74.437485,104.367531 74.291397,104.246208 73.938980,103.928528 
z"/>
</svg>