<svg version="1.1" id="Layer_1" xmlns="http://www.w3.org/2000/svg" xmlns:xlink="http://www.w3.org/1999/xlink" x="0px" y="0px"
	 width="100%" viewBox="0 0 242 270" enable-background="new 0 0 242 270" xml:space="preserve">
<path fill="#FBFCFB" opacity="0.000000" stroke="none" 
	d="
M136.000000,271.000000 
	C90.666672,271.000000 45.833340,271.000000 1.000006,271.000000 
	C1.000004,181.000015 1.000004,91.000015 1.000002,1.000018 
	C81.666649,1.000012 162.333298,1.000012 242.999969,1.000006 
	C242.999969,90.999977 242.999969,180.999954 242.999985,270.999969 
	C207.500000,271.000000 172.000000,271.000000 136.000000,271.000000 
M151.542908,236.684875 
	C151.542908,236.684875 151.704163,236.566772 151.457901,236.214249 
	C151.372223,236.106461 151.286530,235.998672 151.200836,235.890900 
	C151.347031,236.139206 151.493225,236.387497 151.542908,236.684875 
M44.101341,64.632332 
	C43.868057,64.782936 43.680996,64.977890 42.880604,65.646538 
	C42.871181,66.035118 42.861763,66.423698 42.852341,66.812279 
	C43.257084,66.561989 43.661827,66.311699 44.585335,65.933456 
	C44.729004,65.627174 44.872677,65.320892 45.617905,64.885132 
	C45.632294,64.601982 45.646683,64.318840 45.661072,64.035690 
	C45.267509,64.184128 44.873951,64.332573 44.101341,64.632332 
M151.919601,72.088501 
	C151.919601,72.088501 151.788803,72.249489 151.901871,71.468033 
	C151.253159,69.442795 150.604431,67.417557 149.895004,65.202766 
	C147.973465,66.089729 146.922516,66.574844 145.396835,66.987976 
	C145.073868,66.831169 144.909088,66.573280 145.160980,65.576973 
	C145.058624,64.781845 144.956268,63.986713 144.853928,63.191578 
	C143.889435,63.501362 142.924942,63.811142 141.250870,64.000206 
	C131.179443,57.895569 120.568085,56.070370 109.322426,60.236519 
	C97.454407,64.633240 89.531548,73.468559 83.582062,84.168335 
	C72.002686,104.993134 67.943932,127.728943 67.271400,151.234161 
	C67.232826,152.582397 67.793793,154.183090 68.598396,155.284454 
	C78.700058,169.112106 92.351677,177.463989 109.169998,180.072556 
	C128.560715,183.080124 146.107834,178.415344 161.531296,165.282013 
	C164.465408,169.814102 170.489075,172.621475 167.905472,179.331329 
	C163.805496,189.979340 156.657135,197.925934 145.833099,203.356491 
	C145.364609,198.659790 144.946457,194.467804 144.516129,190.153564 
	C139.615860,191.254379 135.000244,192.291260 130.029694,193.407867 
	C130.029694,197.539719 130.029694,201.323792 130.029694,205.817657 
	C122.993034,205.817657 116.348213,206.317444 109.812759,205.685760 
	C102.356583,204.965073 102.396278,204.527039 102.309441,196.697601 
	C102.293060,195.220749 102.307098,193.743546 102.307098,192.463516 
	C96.661484,189.993973 91.445366,187.712296 85.956535,185.311325 
	C85.515274,189.391281 85.115784,193.084961 84.662407,197.276932 
	C80.101067,193.471802 75.993721,190.045410 70.941429,185.830734 
	C71.827835,189.155853 72.241890,190.886673 72.750374,192.589310 
	C78.338417,211.300537 87.149750,227.857147 103.485619,239.598984 
	C115.404091,248.165726 127.178421,247.395691 139.274872,240.062561 
	C148.150909,234.681686 154.662643,226.994385 161.558990,219.017441 
	C162.391541,219.716797 163.224106,220.416153 163.973160,221.807220 
	C162.284988,224.535202 160.596817,227.263199 158.126999,229.990433 
	C157.185715,230.354614 156.244431,230.718796 155.303131,231.082962 
	C155.737244,231.801468 156.171356,232.519989 156.274231,233.848480 
	C152.467255,237.215347 148.660278,240.582199 144.131271,243.943939 
	C143.621872,244.390701 143.112457,244.837463 142.603043,245.284225 
	C143.645111,245.405869 144.687180,245.527512 146.570389,245.561996 
	C154.828201,245.098083 163.377472,245.846558 171.289551,243.944519 
	C195.706726,238.074646 211.949692,222.015564 221.265823,199.262329 
	C234.445999,167.071747 233.637817,134.378189 222.024307,101.938828 
	C216.077515,85.327980 206.751465,70.855057 190.815521,61.941357 
	C186.834839,59.714779 182.169235,58.712734 177.725128,57.114323 
	C183.335785,64.328606 189.458298,70.375496 193.408920,77.608643 
	C207.671478,103.721718 210.435867,131.814453 205.344604,160.776474 
	C205.036224,160.555161 204.725525,160.552002 204.416870,159.971619 
	C205.075912,139.387268 202.865860,119.190506 195.739761,99.755264 
	C191.314362,87.685768 185.524307,76.347359 176.001724,67.347984 
	C170.926208,62.551323 165.060638,60.989780 158.263962,63.102089 
	C155.913757,63.832497 155.937561,64.975807 157.068024,67.173828 
	C157.393707,67.406975 157.719406,67.640121 158.626404,68.237495 
	C161.961014,74.775124 165.295624,81.312752 167.832306,88.093842 
	C166.782166,88.439293 165.732040,88.784744 164.178207,88.692131 
	C160.725540,83.946869 157.272888,79.201614 153.851837,73.706322 
	C153.151138,73.206726 152.450424,72.707123 151.919601,72.088501 
M44.783035,75.771355 
	C44.510208,75.097031 44.237381,74.422714 44.021748,73.054123 
	C43.285633,71.928963 42.549522,70.803810 41.962612,68.835190 
	C42.112232,68.147621 42.261852,67.460045 42.626427,65.784683 
	C32.861153,73.470055 26.231613,82.379601 21.517136,92.521103 
	C6.879512,124.008629 4.628478,156.811279 14.590093,189.799271 
	C22.797749,216.979034 40.151978,236.470306 68.589561,244.296387 
	C77.014793,246.615036 89.075340,246.672729 94.200157,244.335144 
	C84.835419,237.834061 77.796486,229.270599 72.595627,219.288132 
	C61.136215,197.293106 56.741310,173.621368 56.660370,149.018250 
	C56.592613,128.421478 58.825657,108.111298 67.193085,89.107742 
	C71.126625,80.174156 76.780701,71.998138 81.581253,63.607880 
	C73.424889,60.777588 66.183968,63.272438 59.122551,72.267937 
	C47.680408,86.844002 41.300480,103.753784 38.081512,121.720306 
	C35.676712,135.142593 34.711632,148.822830 33.130047,162.180450 
	C30.293159,146.701828 29.698009,130.704910 32.801022,115.050423 
	C35.424152,101.816917 40.284370,89.026833 44.084534,75.985504 
	C44.084534,75.985504 44.059448,76.070892 44.783035,75.771355 
M146.813950,58.528656 
	C147.519547,58.691200 148.225128,58.853748 149.593201,59.211327 
	C150.718735,60.161762 151.844269,61.112198 152.369431,61.555660 
	C158.757904,58.725178 164.656036,56.111942 170.624710,53.467457 
	C164.009079,50.236313 156.899567,48.307919 149.096527,49.511578 
	C144.377533,50.239506 141.641632,47.122124 143.387680,42.611176 
	C144.515717,39.696896 146.652206,37.172962 148.757141,33.800621 
	C153.519196,41.823784 160.224762,43.554207 167.771515,42.983974 
	C176.243362,42.343838 181.173553,35.081390 178.477356,27.046396 
	C176.787033,22.009037 176.219757,17.173275 178.972794,12.084398 
	C171.442535,15.150577 168.632599,20.425783 170.473648,27.434162 
	C171.824341,32.575863 170.024902,34.641991 164.777969,34.172676 
	C159.037292,33.659199 155.968246,29.764059 153.705231,25.195925 
	C151.711487,21.171394 149.079117,19.436325 144.424393,19.767403 
	C138.440399,20.193029 132.110855,18.564224 127.520576,25.180548 
	C127.109398,22.926706 126.945572,22.028704 126.480469,19.479305 
	C121.819183,24.510082 117.960358,28.674780 113.912781,33.043205 
	C113.457428,32.525311 112.823830,31.804678 111.762527,30.597599 
	C108.485794,35.275604 105.234848,39.472080 102.480316,43.972385 
	C99.637207,48.617428 96.583366,51.283607 90.514229,49.601437 
	C87.166016,48.673416 83.199081,49.267899 79.658569,49.946072 
	C76.218781,50.604954 72.967453,52.247692 69.428322,53.532852 
	C75.886505,56.284863 81.415001,58.640709 87.122269,61.072735 
	C100.558060,50.356022 116.216591,45.733482 133.885895,51.186710 
	C138.519440,52.616749 142.637466,55.717152 146.813950,58.528656 
z"/>
<path fill="#090808" opacity="1.000000" stroke="none" 
	d="
M205.824707,160.879532 
	C210.435867,131.814453 207.671478,103.721718 193.408920,77.608643 
	C189.458298,70.375496 183.335785,64.328606 177.725128,57.114323 
	C182.169235,58.712734 186.834839,59.714779 190.815521,61.941357 
	C206.751465,70.855057 216.077515,85.327980 222.024307,101.938828 
	C233.637817,134.378189 234.445999,167.071747 221.265823,199.262329 
	C211.949692,222.015564 195.706726,238.074646 171.289551,243.944519 
	C163.377472,245.846558 154.828201,245.098083 145.899414,245.355713 
	C145.103394,244.749313 144.978348,244.349197 144.853302,243.949066 
	C148.660278,240.582199 152.467255,237.215347 156.673370,233.369354 
	C157.684540,231.923874 158.296585,230.957520 158.908630,229.991180 
	C160.596817,227.263199 162.284988,224.535202 164.303314,221.255646 
	C166.739365,215.348694 170.172882,210.375351 169.178696,204.067413 
	C166.411026,209.027573 163.643341,213.987717 160.875671,218.947876 
	C154.662643,226.994385 148.150909,234.681686 139.274872,240.062561 
	C127.178421,247.395691 115.404091,248.165726 103.485619,239.598984 
	C87.149750,227.857147 78.338417,211.300537 72.750374,192.589310 
	C72.241890,190.886673 71.827835,189.155853 70.941429,185.830734 
	C75.993721,190.045410 80.101067,193.471802 84.662407,197.276932 
	C85.115784,193.084961 85.515274,189.391281 85.956535,185.311325 
	C91.445366,187.712296 96.661484,189.993973 102.307098,192.463516 
	C102.307098,193.743546 102.293060,195.220749 102.309441,196.697601 
	C102.396278,204.527039 102.356583,204.965073 109.812759,205.685760 
	C116.348213,206.317444 122.993034,205.817657 130.029694,205.817657 
	C130.029694,201.323792 130.029694,197.539719 130.029694,193.407867 
	C135.000244,192.291260 139.615860,191.254379 144.516129,190.153564 
	C144.946457,194.467804 145.364609,198.659790 145.833099,203.356491 
	C156.657135,197.925934 163.805496,189.979340 167.905472,179.331329 
	C170.489075,172.621475 164.465408,169.814102 161.531296,165.282013 
	C146.107834,178.415344 128.560715,183.080124 109.169998,180.072556 
	C92.351677,177.463989 78.700058,169.112106 68.598396,155.284454 
	C67.793793,154.183090 67.232826,152.582397 67.271400,151.234161 
	C67.943932,127.728943 72.002686,104.993134 83.582062,84.168335 
	C89.531548,73.468559 97.454407,64.633240 109.322426,60.236519 
	C120.568085,56.070370 131.179443,57.895569 141.749969,64.334511 
	C143.133545,65.183983 144.018021,65.699150 144.902481,66.214325 
	C144.909088,66.573280 145.073868,66.831169 145.780548,67.323349 
	C148.039108,69.188980 149.913956,70.719238 151.788803,72.249489 
	C151.788803,72.249489 151.919601,72.088501 151.935104,72.447258 
	C152.573822,73.356125 153.197021,73.906242 153.820236,74.456360 
	C157.272888,79.201614 160.725540,83.946869 164.498001,89.269753 
	C166.935242,93.915260 169.052689,97.983147 171.170151,102.051041 
	C171.690170,101.835632 172.210175,101.620224 172.730194,101.404823 
	C171.363541,96.886673 169.996887,92.368523 168.630219,87.850372 
	C165.295624,81.312752 161.961014,74.775124 158.303833,67.780113 
	C157.701614,67.101326 157.421997,66.879913 157.142365,66.658501 
	C155.937561,64.975807 155.913757,63.832497 158.263962,63.102089 
	C165.060638,60.989780 170.926208,62.551323 176.001724,67.347984 
	C185.524307,76.347359 191.314362,87.685768 195.739761,99.755264 
	C202.865860,119.190506 205.075912,139.387268 204.227737,160.748169 
	C204.038605,163.086151 204.038605,164.647583 204.038605,166.209000 
	C204.285065,166.250610 204.531509,166.292221 204.777969,166.333832 
	C205.126892,164.515732 205.475800,162.697632 205.824707,160.879532 
M154.774948,115.772667 
	C152.186111,111.657310 149.597275,107.541954 146.140472,102.046867 
	C141.915771,109.845963 138.441650,116.259445 135.052017,122.516937 
	C143.168396,123.239929 150.479523,123.891190 158.227646,124.581375 
	C157.182816,121.890701 156.129333,119.177742 154.774948,115.772667 
M83.040787,122.517303 
	C82.807518,123.263290 82.574249,124.009277 82.354134,124.713188 
	C89.627304,123.955498 96.863884,123.201614 105.206490,122.332512 
	C101.533035,115.769539 98.013199,109.481026 94.493362,103.192513 
	C93.852463,103.251427 93.211563,103.310349 92.570671,103.369270 
	C89.463814,109.502693 86.356949,115.636116 83.040787,122.517303 
M126.236702,144.226700 
	C124.263443,140.319351 122.290184,136.412003 119.731888,131.346207 
	C116.128189,139.172546 113.135864,145.671127 109.961990,152.563995 
	C116.957253,152.563995 122.891724,152.563995 129.530716,152.563995 
	C128.459305,149.730576 127.544617,147.311646 126.236702,144.226700 
z"/>
<path fill="#090909" opacity="1.000000" stroke="none" 
	d="
M44.154503,76.040497 
	C40.284370,89.026833 35.424152,101.816917 32.801022,115.050423 
	C29.698009,130.704910 30.293159,146.701828 33.130047,162.180450 
	C34.711632,148.822830 35.676712,135.142593 38.081512,121.720306 
	C41.300480,103.753784 47.680408,86.844002 59.122551,72.267937 
	C66.183968,63.272438 73.424889,60.777588 81.581253,63.607880 
	C76.780701,71.998138 71.126625,80.174156 67.193085,89.107742 
	C58.825657,108.111298 56.592613,128.421478 56.660370,149.018250 
	C56.741310,173.621368 61.136215,197.293106 72.595627,219.288132 
	C77.796486,229.270599 84.835419,237.834061 94.200157,244.335144 
	C89.075340,246.672729 77.014793,246.615036 68.589561,244.296387 
	C40.151978,236.470306 22.797749,216.979034 14.590093,189.799271 
	C4.628478,156.811279 6.879512,124.008629 21.517136,92.521103 
	C26.231613,82.379601 32.861153,73.470055 42.626427,65.784683 
	C42.261852,67.460045 42.112232,68.147621 41.597519,69.449295 
	C39.415970,73.210396 37.599518,76.357399 35.783062,79.504402 
	C36.110500,79.818825 36.437939,80.133255 36.765373,80.447685 
	C37.917328,79.635773 39.025654,78.750504 40.233265,78.032158 
	C41.490417,77.284340 42.843414,76.697647 44.154503,76.040497 
z"/>
<path fill="#0D0D0D" opacity="1.000000" stroke="none" 
	d="
M146.992249,58.050453 
	C142.637466,55.717152 138.519440,52.616749 133.885895,51.186710 
	C116.216591,45.733482 100.558060,50.356022 87.122269,61.072735 
	C81.415001,58.640709 75.886505,56.284863 69.428322,53.532852 
	C72.967453,52.247692 76.218781,50.604954 79.658569,49.946072 
	C83.199081,49.267899 87.166016,48.673416 90.514229,49.601437 
	C96.583366,51.283607 99.637207,48.617428 102.480316,43.972385 
	C105.234848,39.472080 108.485794,35.275604 111.762527,30.597599 
	C112.823830,31.804678 113.457428,32.525311 113.912781,33.043205 
	C117.960358,28.674780 121.819183,24.510082 126.480469,19.479305 
	C126.945572,22.028704 127.109398,22.926706 127.520576,25.180548 
	C132.110855,18.564224 138.440399,20.193029 144.424393,19.767403 
	C149.079117,19.436325 151.711487,21.171394 153.705231,25.195925 
	C155.968246,29.764059 159.037292,33.659199 164.777969,34.172676 
	C170.024902,34.641991 171.824341,32.575863 170.473648,27.434162 
	C168.632599,20.425783 171.442535,15.150577 178.972794,12.084398 
	C176.219757,17.173275 176.787033,22.009037 178.477356,27.046396 
	C181.173553,35.081390 176.243362,42.343838 167.771515,42.983974 
	C160.224762,43.554207 153.519196,41.823784 148.757141,33.800621 
	C146.652206,37.172962 144.515717,39.696896 143.387680,42.611176 
	C141.641632,47.122124 144.377533,50.239506 149.096527,49.511578 
	C156.899567,48.307919 164.009079,50.236313 170.624710,53.467457 
	C164.656036,56.111942 158.757904,58.725178 152.369431,61.555660 
	C151.844269,61.112198 150.718735,60.161762 149.114655,58.838158 
	C148.088165,58.326809 147.540207,58.188629 146.992249,58.050453 
z"/>
<path fill="#EBEBEB" opacity="0.000000" stroke="none" 
	d="
M161.217331,218.982666 
	C163.643341,213.987717 166.411026,209.027573 169.178696,204.067413 
	C170.172882,210.375351 166.739365,215.348694 164.345062,220.909790 
	C163.224106,220.416153 162.391541,219.716797 161.217331,218.982666 
z"/>
<path fill="#F0EFF0" opacity="0.000000" stroke="none" 
	d="
M168.231262,87.972107 
	C169.996887,92.368523 171.363541,96.886673 172.730194,101.404823 
	C172.210175,101.620224 171.690170,101.835632 171.170151,102.051041 
	C169.052689,97.983147 166.935242,93.915260 164.749847,89.488785 
	C165.732040,88.784744 166.782166,88.439293 168.231262,87.972107 
z"/>
<path fill="#DDDDDD" opacity="0.000000" stroke="none" 
	d="
M44.119518,76.013000 
	C42.843414,76.697647 41.490417,77.284340 40.233265,78.032158 
	C39.025654,78.750504 37.917328,79.635773 36.765373,80.447685 
	C36.437939,80.133255 36.110500,79.818825 35.783062,79.504402 
	C37.599518,76.357399 39.415970,73.210396 41.522919,69.871025 
	C42.549522,70.803810 43.285633,71.928963 43.784927,73.832458 
	C43.718555,75.097488 43.889000,75.584190 44.059448,76.070892 
	C44.059448,76.070892 44.084534,75.985504 44.119518,76.013000 
z"/>
<path fill="#F0EFF0" opacity="0.000000" stroke="none" 
	d="
M151.845337,71.858765 
	C149.913956,70.719238 148.039108,69.188980 146.017914,67.359344 
	C146.922516,66.574844 147.973465,66.089729 149.895004,65.202766 
	C150.604431,67.417557 151.253159,69.442795 151.845337,71.858765 
z"/>
<path fill="#F0EFF0" opacity="0.000000" stroke="none" 
	d="
M145.031738,65.895645 
	C144.018021,65.699150 143.133545,65.183983 142.104767,64.394867 
	C142.924942,63.811142 143.889435,63.501362 144.853912,63.191582 
	C144.956268,63.986713 145.058624,64.781845 145.031738,65.895645 
z"/>
<path fill="#EBEBEB" opacity="0.000000" stroke="none" 
	d="
M158.517822,229.990814 
	C158.296585,230.957520 157.684540,231.923874 156.838989,233.064362 
	C156.171356,232.519989 155.737244,231.801468 155.303131,231.082977 
	C156.244431,230.718796 157.185715,230.354614 158.517822,229.990814 
z"/>
<path fill="#8E8C8E" opacity="1.000000" stroke="none" 
	d="
M205.584656,160.828003 
	C205.475800,162.697632 205.126892,164.515732 204.777969,166.333832 
	C204.531509,166.292221 204.285065,166.250610 204.038605,166.209000 
	C204.038605,164.647583 204.038605,163.086151 204.225555,161.145874 
	C204.725525,160.552002 205.036224,160.555161 205.584656,160.828003 
z"/>
<path fill="#EBEBEB" opacity="0.000000" stroke="none" 
	d="
M144.492279,243.946503 
	C144.978348,244.349197 145.103394,244.749313 145.478836,245.399307 
	C144.687180,245.527512 143.645111,245.405869 142.603043,245.284225 
	C143.112457,244.837463 143.621872,244.390701 144.492279,243.946503 
z"/>
<path fill="#F0EFF0" opacity="0.000000" stroke="none" 
	d="
M153.836029,74.081337 
	C153.197021,73.906242 152.573822,73.356125 151.850159,72.506775 
	C152.450424,72.707123 153.151138,73.206726 153.836029,74.081337 
z"/>
<path fill="#F0EFF0" opacity="0.000000" stroke="none" 
	d="
M146.903107,58.289555 
	C147.540207,58.188629 148.088165,58.326809 148.783417,58.740643 
	C148.225128,58.853748 147.519547,58.691200 146.903107,58.289555 
z"/>
<path fill="#090909" opacity="1.000000" stroke="none" 
	d="
M44.421242,75.921127 
	C43.889000,75.584190 43.718555,75.097488 43.756329,74.179588 
	C44.237381,74.422714 44.510208,75.097031 44.421242,75.921127 
z"/>
<path fill="#F0EFF0" opacity="0.000000" stroke="none" 
	d="
M157.105194,66.916168 
	C157.421997,66.879913 157.701614,67.101326 158.013168,67.598000 
	C157.719406,67.640121 157.393707,67.406975 157.105194,66.916168 
z"/>
<path fill="#090909" opacity="1.000000" stroke="none" 
	d="
M44.066566,66.061401 
	C43.661827,66.311699 43.257084,66.561989 42.852341,66.812279 
	C42.861763,66.423698 42.871181,66.035118 43.324924,65.653580 
	C43.769245,65.660629 44.066566,66.061401 44.066566,66.061401 
z"/>
<path fill="#090909" opacity="1.000000" stroke="none" 
	d="
M45.016346,65.014610 
	C44.872677,65.320892 44.729004,65.627174 44.325951,65.997429 
	C44.066566,66.061401 43.769245,65.660629 43.654705,65.438919 
	C43.680996,64.977890 43.868057,64.782936 44.421726,64.693214 
	C44.742111,64.754097 45.016346,65.014610 45.016346,65.014610 
z"/>
<path fill="#090909" opacity="1.000000" stroke="none" 
	d="
M44.611252,64.617554 
	C44.873951,64.332573 45.267509,64.184128 45.661072,64.035690 
	C45.646683,64.318840 45.632294,64.601982 45.317123,64.949875 
	C45.016346,65.014610 44.742111,64.754097 44.611252,64.617554 
z"/>
<path fill="#EBEBEB" opacity="0.000000" stroke="none" 
	d="
M151.639420,236.635788 
	C151.493225,236.387497 151.347031,236.139206 151.200836,235.890900 
	C151.286530,235.998672 151.372223,236.106461 151.500214,236.347214 
	C151.542526,236.480179 151.639420,236.635788 151.639420,236.635788 
z"/>
<path fill="#090808" opacity="1.000000" stroke="none" 
	d="
M151.623352,236.523468 
	C151.704163,236.566772 151.542908,236.684875 151.591156,236.660339 
	C151.639420,236.635788 151.542526,236.480179 151.623352,236.523468 
z"/>
<path fill="#F6F6F6" opacity="0.000000" stroke="none" 
	d="
M154.925400,116.118721 
	C156.129333,119.177742 157.182816,121.890701 158.227646,124.581375 
	C150.479523,123.891190 143.168396,123.239929 135.052017,122.516937 
	C138.441650,116.259445 141.915771,109.845963 146.140472,102.046867 
	C149.597275,107.541954 152.186111,111.657310 154.925400,116.118721 
z"/>
<path fill="#F5F5F6" opacity="0.000000" stroke="none" 
	d="
M83.145439,122.143417 
	C86.356949,115.636116 89.463814,109.502693 92.570671,103.369270 
	C93.211563,103.310349 93.852463,103.251427 94.493362,103.192513 
	C98.013199,109.481026 101.533035,115.769539 105.206490,122.332512 
	C96.863884,123.201614 89.627304,123.955498 82.354134,124.713188 
	C82.574249,124.009277 82.807518,123.263290 83.145439,122.143417 
z"/>
<path fill="#EFEFEF" opacity="0.000000" stroke="none" 
	d="
M126.433319,144.559692 
	C127.544617,147.311646 128.459305,149.730576 129.530716,152.563995 
	C122.891724,152.563995 116.957253,152.563995 109.961990,152.563995 
	C113.135864,145.671127 116.128189,139.172546 119.731888,131.346207 
	C122.290184,136.412003 124.263443,140.319351 126.433319,144.559692 
z"/>
</svg>