<svg version="1.1" id="Layer_1" xmlns="http://www.w3.org/2000/svg" xmlns:xlink="http://www.w3.org/1999/xlink" x="0px" y="0px"
	 width="100%" viewBox="0 0 262 256" enable-background="new 0 0 262 256" xml:space="preserve">
<path fill="#FBFDFC" opacity="0.000000" stroke="none" 
	d="
M161.000000,257.000000 
	C107.333344,257.000000 54.166691,257.000000 1.000029,257.000000 
	C1.000019,171.666702 1.000019,86.333397 1.000010,1.000074 
	C88.333282,1.000050 175.666565,1.000050 262.999878,1.000025 
	C262.999939,86.333260 262.999939,171.666519 262.999969,256.999878 
	C229.166672,257.000000 195.333328,257.000000 161.000000,257.000000 
M174.077728,236.762070 
	C177.370087,235.220490 180.546356,232.721512 183.975220,232.305817 
	C197.606323,230.653244 209.010300,224.477768 218.899200,215.549988 
	C255.360748,182.632294 259.803223,121.623421 228.190643,83.940331 
	C215.813141,69.185974 200.907440,58.034962 180.061096,58.961151 
	C179.272964,58.996166 178.360703,58.835381 177.686615,58.450222 
	C167.335678,52.536030 156.882248,52.469761 146.451996,58.046967 
	C142.871048,54.750546 142.616272,50.885365 143.642624,46.843269 
	C146.259109,36.538643 154.993027,31.924028 166.198776,34.806385 
	C173.803558,36.762497 179.380890,33.384228 180.550247,26.113497 
	C181.796097,18.367153 175.090103,11.118182 165.616455,10.165887 
	C152.311905,8.828508 141.065506,12.814395 132.174179,23.101065 
	C124.298576,32.212585 119.549904,42.908165 115.826675,54.171909 
	C114.599220,57.885296 112.730438,59.190975 108.740189,57.140537 
	C99.667801,52.478584 90.493835,53.021847 81.451553,57.559471 
	C80.301888,58.136402 78.965736,58.844181 77.771637,58.754044 
	C62.200932,57.578709 49.654816,64.316849 38.589874,74.178352 
	C2.334724,106.490326 -1.703935,169.546387 30.121964,207.422897 
	C41.280186,220.702484 54.474682,230.999924 72.864136,232.090744 
	C74.229019,232.171722 75.642281,233.091537 76.850548,233.895615 
	C86.195839,240.114670 96.191315,241.256851 106.880669,238.157028 
	C108.448021,237.702515 110.545822,237.672958 111.968849,238.349655 
	C122.275299,243.250732 132.466202,243.003174 142.784027,238.437317 
	C144.137482,237.838348 146.002945,237.686234 147.427628,238.074448 
	C156.206711,240.466690 164.817139,240.265564 174.077728,236.762070 
z"/>
<path fill="#090809" opacity="1.000000" stroke="none" 
	d="
M173.703369,236.874390 
	C164.817139,240.265564 156.206711,240.466690 147.427628,238.074448 
	C146.002945,237.686234 144.137482,237.838348 142.784027,238.437317 
	C132.466202,243.003174 122.275299,243.250732 111.968849,238.349655 
	C110.545822,237.672958 108.448021,237.702515 106.880669,238.157028 
	C96.191315,241.256851 86.195839,240.114670 76.850548,233.895615 
	C75.642281,233.091537 74.229019,232.171722 72.864136,232.090744 
	C54.474682,230.999924 41.280186,220.702484 30.121964,207.422897 
	C-1.703935,169.546387 2.334724,106.490326 38.589874,74.178352 
	C49.654816,64.316849 62.200932,57.578709 77.771637,58.754044 
	C78.965736,58.844181 80.301888,58.136402 81.451553,57.559471 
	C90.493835,53.021847 99.667801,52.478584 108.740189,57.140537 
	C112.730438,59.190975 114.599220,57.885296 115.826675,54.171909 
	C119.549904,42.908165 124.298576,32.212585 132.174179,23.101065 
	C141.065506,12.814395 152.311905,8.828508 165.616455,10.165887 
	C175.090103,11.118182 181.796097,18.367153 180.550247,26.113497 
	C179.380890,33.384228 173.803558,36.762497 166.198776,34.806385 
	C154.993027,31.924028 146.259109,36.538643 143.642624,46.843269 
	C142.616272,50.885365 142.871048,54.750546 146.451996,58.046967 
	C156.882248,52.469761 167.335678,52.536030 177.686615,58.450222 
	C178.360703,58.835381 179.272964,58.996166 180.061096,58.961151 
	C200.907440,58.034962 215.813141,69.185974 228.190643,83.940331 
	C259.803223,121.623421 255.360748,182.632294 218.899200,215.549988 
	C209.010300,224.477768 197.606323,230.653244 183.975220,232.305817 
	C180.546356,232.721512 177.370087,235.220490 173.703369,236.874390 
M210.582001,78.442139 
	C209.656769,77.818779 208.731522,77.195419 207.806290,76.572052 
	C207.589661,76.832687 207.373016,77.093323 207.156387,77.353958 
	C207.678604,77.931862 208.200821,78.509773 209.109100,79.872017 
	C210.072418,80.459343 211.035736,81.046661 211.999054,81.633987 
	C211.626053,80.768784 211.253036,79.903587 210.582001,78.442139 
M195.332947,150.909515 
	C174.941116,158.422943 153.764999,161.845062 131.689148,162.377182 
	C131.689148,166.943527 131.689148,170.868683 131.689148,174.852478 
	C127.434105,174.852478 123.650627,174.852478 119.195366,174.852478 
	C119.195366,170.616074 119.195366,166.533646 119.195366,162.170395 
	C97.514000,161.392609 77.072731,157.355835 56.572128,149.520126 
	C63.873680,171.726959 78.959831,183.344727 100.021011,188.962265 
	C100.021011,185.384430 100.021011,182.270050 100.021011,179.156036 
	C112.623146,179.514526 112.543152,179.535934 115.484901,190.532364 
	C115.845474,191.880219 117.570526,193.787766 118.737991,193.842529 
	C125.485138,194.159027 132.254730,193.996994 139.478394,193.996994 
	C139.738663,189.348923 139.969070,185.233887 140.215332,180.835663 
	C145.941681,179.856400 151.623215,178.884796 157.861389,177.818024 
	C157.861389,181.527313 157.861389,184.740250 157.861389,188.023758 
	C167.132782,186.219345 176.974915,181.009415 183.937027,174.414917 
	C190.330338,168.359161 194.861984,161.117599 197.652420,152.791351 
	C198.040207,151.634277 199.285248,149.372559 195.332947,150.909515 
M169.167053,63.048420 
	C161.132843,62.414646 153.700867,63.953526 147.434372,69.258110 
	C136.557205,59.715340 123.916626,58.544151 113.690704,66.790474 
	C112.754959,67.545074 110.323540,67.178650 108.950638,66.544624 
	C94.269730,59.764824 82.067123,62.489052 71.402283,74.718773 
	C60.368637,87.371422 55.347393,102.430878 53.198780,118.690453 
	C52.584663,123.337791 52.397366,128.041534 52.014347,132.719421 
	C52.512684,132.781921 53.011017,132.844421 53.509354,132.906921 
	C53.998119,131.227432 54.508064,129.553787 54.972435,127.867592 
	C60.752357,106.879807 71.076752,88.617889 87.669022,74.278923 
	C95.424461,67.576698 100.402390,67.279350 108.809059,72.059021 
	C107.083664,75.859512 105.350815,79.676430 103.617966,83.493347 
	C111.069008,76.801582 117.533867,69.235764 128.071457,68.028717 
	C138.947311,66.782913 146.462570,73.262405 153.494278,80.666824 
	C153.851135,80.258301 154.207993,79.849777 154.564850,79.441246 
	C153.459930,77.199280 152.355011,74.957306 150.698212,71.595535 
	C155.270554,70.723061 159.572128,69.047577 163.783600,69.249695 
	C180.177734,70.036491 191.760330,79.909866 202.685028,91.657059 
	C200.814133,79.561646 185.025528,66.057259 169.167053,63.048420 
M44.711391,79.206871 
	C30.749474,92.075005 23.872135,108.488014 20.519114,128.156082 
	C23.939093,123.417122 26.635405,119.680931 29.412052,115.833412 
	C29.412052,124.857040 29.005341,133.328445 29.512915,141.744720 
	C30.177664,152.767151 33.287384,161.487198 37.034737,165.181229 
	C38.879192,129.979156 43.299355,95.685417 67.257935,67.037209 
	C58.557018,68.972031 51.513493,73.117836 44.711391,79.206871 
M93.173515,126.728981 
	C100.843163,119.607239 101.540520,112.821472 95.294632,104.412819 
	C91.714485,99.592972 87.938721,94.918434 83.091087,88.687561 
	C83.091087,94.282211 82.696480,98.681778 83.201950,102.975372 
	C83.708511,107.278297 85.113434,111.475456 86.235695,116.185150 
	C76.686798,110.019234 71.271332,110.504860 60.834526,122.059227 
	C69.848396,132.526108 81.819954,134.433105 93.173515,126.728981 
M172.492966,90.174019 
	C168.544617,95.070801 164.552414,99.933022 160.658188,104.872482 
	C154.853088,112.235733 155.771164,120.371330 163.002655,126.360085 
	C172.962128,134.608002 186.311722,132.869888 195.002914,122.193634 
	C186.892822,112.328430 181.582413,110.675415 170.679031,115.073097 
	C171.036682,113.203026 171.481750,111.660477 171.605560,110.092560 
	C172.139694,103.329124 172.579681,96.558243 172.492966,90.174019 
M228.729462,125.089798 
	C230.613876,139.424866 230.256042,153.701736 227.296082,167.911057 
	C227.823059,168.079895 228.350037,168.248749 228.877014,168.417587 
	C230.859070,162.792114 232.841125,157.166641 234.878357,151.384552 
	C235.459213,154.568817 236.030975,157.703293 236.645630,161.072876 
	C247.102936,143.211868 228.228470,83.601021 210.544815,81.335617 
	C219.634720,94.828560 226.050201,108.758347 228.729462,125.089798 
M128.874542,118.798576 
	C128.454803,117.992348 128.035065,117.186119 127.409462,115.984467 
	C124.623528,122.452599 122.028358,128.477829 119.283188,134.851318 
	C125.002701,134.851318 129.948807,134.851318 135.704102,134.851318 
	C133.370300,129.453583 131.218491,124.476753 128.874542,118.798576 
z"/>
<path fill="#F9FAFA" opacity="0.000000" stroke="none" 
	d="
M195.705597,150.781754 
	C199.285248,149.372559 198.040207,151.634277 197.652420,152.791351 
	C194.861984,161.117599 190.330338,168.359161 183.937027,174.414917 
	C176.974915,181.009415 167.132782,186.219345 157.861389,188.023758 
	C157.861389,184.740250 157.861389,181.527313 157.861389,177.818024 
	C151.623215,178.884796 145.941681,179.856400 140.215332,180.835663 
	C139.969070,185.233887 139.738663,189.348923 139.478394,193.996994 
	C132.254730,193.996994 125.485138,194.159027 118.737991,193.842529 
	C117.570526,193.787766 115.845474,191.880219 115.484901,190.532364 
	C112.543152,179.535934 112.623146,179.514526 100.021011,179.156036 
	C100.021011,182.270050 100.021011,185.384430 100.021011,188.962265 
	C78.959831,183.344727 63.873680,171.726959 56.572128,149.520126 
	C77.072731,157.355835 97.514000,161.392609 119.195366,162.170395 
	C119.195366,166.533646 119.195366,170.616074 119.195366,174.852478 
	C123.650627,174.852478 127.434105,174.852478 131.689148,174.852478 
	C131.689148,170.868683 131.689148,166.943527 131.689148,162.377182 
	C153.764999,161.845062 174.941116,158.422943 195.705597,150.781754 
z"/>
<path fill="#F2F2F2" opacity="0.000000" stroke="none" 
	d="
M169.612167,63.089798 
	C185.025528,66.057259 200.814133,79.561646 202.685028,91.657059 
	C191.760330,79.909866 180.177734,70.036491 163.783600,69.249695 
	C159.572128,69.047577 155.270554,70.723061 150.698212,71.595535 
	C152.355011,74.957306 153.459930,77.199280 154.564850,79.441246 
	C154.207993,79.849777 153.851135,80.258301 153.494278,80.666824 
	C146.462570,73.262405 138.947311,66.782913 128.071457,68.028717 
	C117.533867,69.235764 111.069008,76.801582 103.617966,83.493347 
	C105.350815,79.676430 107.083664,75.859512 108.809059,72.059021 
	C100.402390,67.279350 95.424461,67.576698 87.669022,74.278923 
	C71.076752,88.617889 60.752357,106.879807 54.972435,127.867592 
	C54.508064,129.553787 53.998119,131.227432 53.509354,132.906921 
	C53.011017,132.844421 52.512684,132.781921 52.014347,132.719421 
	C52.397366,128.041534 52.584663,123.337791 53.198780,118.690453 
	C55.347393,102.430878 60.368637,87.371422 71.402283,74.718773 
	C82.067123,62.489052 94.269730,59.764824 108.950638,66.544624 
	C110.323540,67.178650 112.754959,67.545074 113.690704,66.790474 
	C123.916626,58.544151 136.557205,59.715340 147.434372,69.258110 
	C153.700867,63.953526 161.132843,62.414646 169.612167,63.089798 
z"/>
<path fill="#F4F4F5" opacity="0.000000" stroke="none" 
	d="
M44.983078,78.976707 
	C51.513493,73.117836 58.557018,68.972031 67.257935,67.037209 
	C43.299355,95.685417 38.879192,129.979156 37.034737,165.181229 
	C33.287384,161.487198 30.177664,152.767151 29.512915,141.744720 
	C29.005341,133.328445 29.412052,124.857040 29.412052,115.833412 
	C26.635405,119.680931 23.939093,123.417122 20.519114,128.156082 
	C23.872135,108.488014 30.749474,92.075005 44.983078,78.976707 
z"/>
<path fill="#F7F7F8" opacity="0.000000" stroke="none" 
	d="
M92.859566,126.919792 
	C81.819954,134.433105 69.848396,132.526108 60.834526,122.059227 
	C71.271332,110.504860 76.686798,110.019234 86.235695,116.185150 
	C85.113434,111.475456 83.708511,107.278297 83.201950,102.975372 
	C82.696480,98.681778 83.091087,94.282211 83.091087,88.687561 
	C87.938721,94.918434 91.714485,99.592972 95.294632,104.412819 
	C101.540520,112.821472 100.843163,119.607239 92.859566,126.919792 
z"/>
<path fill="#F7F7F7" opacity="0.000000" stroke="none" 
	d="
M172.773453,89.982048 
	C172.579681,96.558243 172.139694,103.329124 171.605560,110.092560 
	C171.481750,111.660477 171.036682,113.203026 170.679031,115.073097 
	C181.582413,110.675415 186.892822,112.328430 195.002914,122.193634 
	C186.311722,132.869888 172.962128,134.608002 163.002655,126.360085 
	C155.771164,120.371330 154.853088,112.235733 160.658188,104.872482 
	C164.552414,99.933022 168.544617,95.070801 172.773453,89.982048 
z"/>
<path fill="#F5F4F5" opacity="0.000000" stroke="none" 
	d="
M228.562531,124.682327 
	C226.050201,108.758347 219.634720,94.828560 210.544815,81.335617 
	C228.228470,83.601021 247.102936,143.211868 236.645630,161.072876 
	C236.030975,157.703293 235.459213,154.568817 234.878357,151.384552 
	C232.841125,157.166641 230.859070,162.792114 228.877014,168.417587 
	C228.350037,168.248749 227.823059,168.079895 227.296082,167.911057 
	C230.256042,153.701736 230.613876,139.424866 228.562531,124.682327 
z"/>
<path fill="#F3F4F4" opacity="0.000000" stroke="none" 
	d="
M128.970612,119.149246 
	C131.218491,124.476753 133.370300,129.453583 135.704102,134.851318 
	C129.948807,134.851318 125.002701,134.851318 119.283188,134.851318 
	C122.028358,128.477829 124.623528,122.452599 127.409462,115.984467 
	C128.035065,117.186119 128.454803,117.992348 128.970612,119.149246 
z"/>
<path fill="#E1E0E2" opacity="0.000000" stroke="none" 
	d="
M208.723038,79.087677 
	C208.200821,78.509773 207.678604,77.931862 207.156387,77.353958 
	C207.373016,77.093323 207.589661,76.832687 207.806290,76.572052 
	C208.731522,77.195419 209.656769,77.818779 210.371552,78.753571 
	C209.681763,79.072563 209.202393,79.080116 208.723038,79.087677 
z"/>
<path fill="#F5F4F5" opacity="0.000000" stroke="none" 
	d="
M208.916077,79.479843 
	C209.202393,79.080116 209.681763,79.072563 210.520569,79.051697 
	C211.253036,79.903587 211.626053,80.768784 211.999054,81.633987 
	C211.035736,81.046661 210.072418,80.459343 208.916077,79.479843 
z"/>
</svg>